<svg width="1024" height="1024" viewBox="0 0 1024 1024" xmlns="http://www.w3.org/2000/svg" preserveAspectRatio="xMidYMid meet"><svg x="331" y="636" width="358" height="106" xmlns="http://www.w3.org/2000/svg" preserveAspectRatio="none"><svg version="1.1" xmlns="http://www.w3.org/2000/svg" style="display: block;" width="358" height="106" viewBox="273.30 89.46 1503.62 445.21" preserveAspectRatio="none"><g id="svg-group-081d1d39-7b88-443e-9622-65b61de9a7d1">
<path transform="translate(0,0)" fill="rgb(0,0,0)" d="M 343.268 101.436 C 373.992 101.298 398.042 111.931 408.601 141.976 C 404.555 156.083 400.963 165.79 387.492 173.844 C 396.884 180.681 409.774 188.867 414.103 199.757 C 423.678 223.848 406.737 243.874 385.872 253.021 C 376.364 257.485 354.568 261.145 343.766 261.068 C 332.894 260.99 327.822 260.199 320.354 252.889 C 311.954 214.336 322.659 172.448 315.885 133.819 C 315.23 130.085 307.25 127.384 304.232 126.17 L 298.347 118.304 C 311.789 100.81 322.455 102.772 343.268 101.436 z M 343.489 238.335 C 353.772 237.253 374.146 236.08 381.74 229.135 C 389.173 221.878 398.645 208.097 388.865 198.654 C 375.421 185.673 358.693 189.057 342.044 188.111 C 342.738 204.981 343.012 221.496 343.489 238.335 z M 341.567 168.602 C 351.178 167.342 364.793 165.612 372.686 159.733 C 379.419 153.086 381.346 149.382 382.876 139.823 C 373.331 121.004 361.267 123.425 342.329 124.046 C 341.533 138.797 342.538 154.019 341.567 168.602 z"/>
<path transform="translate(0,0)" fill="rgb(0,0,0)" d="M 1016.34 101.404 C 1030.91 101.297 1044.01 101.184 1057.61 107.378 C 1103.67 128.371 1091.87 177.93 1049.15 193.984 C 1058.1 206.793 1068.5 223.139 1080.3 234.072 C 1085.84 239.21 1115.18 241.526 1091.84 257.212 C 1089.68 258.663 1083.72 260.097 1081 260.815 C 1067.96 256.251 1065.46 254.819 1056.79 244.483 C 1043.77 228.959 1036.44 215.278 1021.73 199.401 C 1010.06 215.958 1021.41 235.941 1012.2 253.682 C 1007.17 263.37 998.884 260.571 991.409 256.118 C 990.803 245.576 988.689 231.019 989.27 220.828 C 990.929 191.701 991.364 163.493 990.921 134.298 C 961.414 107.358 993.721 102.825 1016.34 101.404 z M 1016.78 179.443 C 1025.67 178.047 1042.18 174.863 1049.65 170.01 C 1083.63 143.865 1052.24 118.091 1019.88 122.341 C 1017.23 135.819 1017.48 164.536 1016.78 179.443 z"/>
<path transform="translate(0,0)" fill="rgb(0,0,0)" d="M 977.724 357.064 C 979.79 356.891 981.968 356.728 984.029 356.999 C 986.603 357.337 988.884 359.038 990.434 361.065 C 992.455 363.709 993.318 367.098 993.709 370.353 C 994.99 381.018 994.019 392.717 993.933 403.476 C 993.732 428.657 992.712 453.498 990.888 478.615 C 990.276 487.043 990.238 495.719 989.058 504.07 C 988.64 507.024 987.416 514.355 984.857 516.143 C 982.412 517.853 975.573 517.368 972.675 516.776 C 950.222 512.186 924.182 445.077 911.201 425.691 C 910.039 423.955 908.761 422.085 906.586 421.663 C 901.576 425.583 901.164 429.034 901.226 434.988 C 901.459 457.331 902.167 479.743 901.735 502.077 C 901.65 506.521 900.141 512.85 896.651 515.829 C 893.134 518.841 885.542 517.258 881.098 516.761 C 880.273 515.929 879.49 515.032 878.957 513.977 C 872.247 500.684 876.397 393.388 878.593 375.006 C 879.02 371.433 880.133 367.836 881.194 364.408 C 883.41 362.386 885.688 360.316 888.515 359.189 C 911.607 349.987 952.71 459.976 965.444 465.33 C 971.705 457.759 959.059 373.092 977.724 357.064 z"/>
<path transform="translate(0,0)" fill="rgb(0,0,0)" d="M 1243.02 159.182 C 1249.41 158.504 1255.4 158.877 1261.5 160.296 C 1285.82 165.954 1287.13 159.867 1288.13 184.659 C 1289.27 213.365 1290.19 240.823 1284.65 269.223 C 1281.61 284.817 1275.1 302.605 1261.47 311.699 C 1244.64 322.775 1211.6 311.526 1201.25 295.448 C 1197.85 290.168 1199.25 286.342 1200.51 280.69 C 1215.8 271.59 1246.13 321.264 1258.85 276.407 C 1260.82 269.446 1263.84 262.496 1264.55 254.942 C 1257.66 251.06 1241.59 260.009 1229.01 254.978 C 1204.49 245.168 1194.79 221.435 1202.97 196.525 C 1209.5 176.677 1224.81 167.628 1243.02 159.182 z M 1242.51 237.132 C 1264.65 232.308 1269.14 210.361 1266.25 190.452 C 1264.85 180.783 1257.54 176.794 1248.29 177.128 C 1233.34 182.541 1218.71 207.04 1224.59 222.894 C 1226.55 228.219 1230.55 232.544 1235.71 234.914 C 1237.79 235.863 1240.29 236.629 1242.51 237.132 z"/>
<path transform="translate(0,0)" fill="rgb(0,0,0)" d="M 765.429 350.03 C 767.893 349.987 770.435 349.916 772.862 350.391 C 776.778 351.158 778.423 352.857 779.488 356.625 C 782.869 368.588 778.936 389.276 778.003 402.118 C 777.068 414.994 772.576 483.318 777.997 490.95 C 781.047 495.245 791.5 495.224 796.321 495.898 C 797.347 528.926 771.622 515.704 754.37 505.952 C 747.958 508.571 738.491 513.391 732.466 516.726 C 681.827 523.259 674.921 457.076 705.308 430.016 C 720.388 416.588 732.738 416.616 751.685 417.348 C 753.441 401.169 755.366 359.701 765.429 350.03 z M 727.953 494.307 C 734.227 493.779 748.348 489.864 749.224 481.981 C 749.999 475.001 751.005 443.95 747.483 439.77 C 743.022 438.188 740.007 438.375 735.286 438.309 C 712.298 442.7 702.405 492.753 727.953 494.307 z"/>
<path transform="translate(0,0)" fill="rgb(0,0,0)" d="M 509.544 415.274 C 579.795 412.598 571.001 514.436 512.267 517.569 C 500.295 517.249 492.618 516.731 481.832 510.091 C 458.922 495.985 458.376 459.522 471.906 438.882 C 481.016 424.984 493.363 418.476 509.544 415.274 z M 515.458 494.373 C 530.949 485.948 539.626 463.037 530.972 447.264 C 528.104 442.063 523.251 438.247 517.521 436.686 C 513.999 435.72 510.507 435.951 506.879 436.121 C 491.62 445.421 483.804 470.398 493.43 485.786 C 496.203 490.222 500.617 493.383 505.71 494.578 C 508.331 495.186 512.759 494.791 515.458 494.373 z"/>
<path transform="translate(0,0)" fill="rgb(0,0,0)" d="M 615.879 415.293 C 632.229 414.925 639.779 414.928 653.967 425.248 C 685.777 448.387 666.139 513.845 628.949 517.168 C 615.269 518.106 603.765 517.409 592.246 509.377 C 570.251 494.124 569.366 458.08 583.676 437.462 C 590.042 428.289 604.563 417.27 615.879 415.293 z M 623.816 495.645 C 644.729 485.677 646.693 467.585 642.111 447.197 C 636.196 440.167 632.935 437.164 623.539 436.317 C 623.238 436.29 622.937 436.265 622.636 436.242 C 593.467 441.515 592.642 498.699 623.816 495.645 z"/>
<path transform="translate(0,0)" fill="rgb(0,0,0)" d="M 1397.35 416.116 C 1472.21 408.826 1465.23 505.165 1414.38 516.807 C 1404.34 517.925 1393.36 518.055 1383.94 513.979 C 1373.76 509.465 1365.75 501.161 1361.59 490.832 C 1356.76 478.603 1357.47 458.297 1362.89 446.307 C 1369.99 430.581 1381.9 422.145 1397.35 416.116 z M 1408 495.375 C 1427.15 484.722 1428.23 469.658 1426.84 450.091 C 1420.19 440.377 1415.56 435.742 1403.18 436.145 C 1382.54 444.544 1375.25 484.384 1398.19 494.204 C 1401.34 495.548 1404.59 496.203 1408 495.375 z"/>
<path transform="translate(0,0)" fill="rgb(0,0,0)" d="M 788.777 159.107 C 856.077 153.259 860.44 241.058 803.878 258.118 C 739.15 264.28 725.998 178.826 788.777 159.107 z M 798.78 239.051 C 827.102 221.115 827.835 172.241 792.117 176.163 C 757.828 197.804 773.8 245.497 798.78 239.051 z"/>
<path transform="translate(0,0)" fill="rgb(0,0,0)" d="M 1329.25 414.874 C 1343.77 415.294 1343 434.152 1341.94 445.014 C 1339.62 468.537 1331.17 497.288 1315.42 515.202 C 1312.42 518.618 1302.44 517.132 1298.11 516.747 C 1286.68 506.691 1284.2 496.709 1278.03 483.726 C 1277.11 481.787 1275.61 479.728 1273.44 479.111 C 1265.78 483.771 1265.01 507.867 1255.13 514.779 C 1249.94 518.41 1242.6 516.716 1236.73 515.783 C 1236.27 515.386 1235.8 514.985 1235.34 514.582 C 1221.16 502.16 1210.64 467.428 1209.38 448.412 C 1208.26 439.471 1203.29 416.431 1217.87 417.148 C 1233.36 422.828 1232.72 458.937 1239.55 473.038 C 1242.16 478.436 1242.81 479.549 1246.21 484.625 C 1248.2 480.224 1250.87 474.583 1252.27 469.195 C 1254.92 458.976 1264.56 416.457 1282.29 435.064 C 1293.1 446.414 1293.58 470.812 1305.22 485.198 C 1319.9 460.288 1316.01 428.248 1329.25 414.874 z"/>
<path transform="translate(0,0)" fill="rgb(0,0,0)" d="M 1405.48 159.089 C 1469.2 149.975 1474.72 247.73 1415.21 257.962 C 1395.34 260.635 1370.24 249.891 1365.44 228.97 C 1361.96 213.823 1365 194.077 1372.88 180.583 C 1380.32 167.828 1391.81 162.481 1405.48 159.089 z M 1414.49 237.75 C 1440.56 218.874 1445.63 173.886 1405.19 176.249 C 1397.21 182.773 1393.59 186.758 1389.9 196.212 C 1383.47 212.729 1386.93 238.573 1409.16 238.895 C 1410.79 238.919 1412.98 238.323 1414.49 237.75 z"/>
<path transform="translate(0,0)" fill="rgb(0,0,0)" d="M 396.7 359.424 C 410.81 356.721 431.177 360.671 445.339 360.986 C 467.334 361.476 463.838 381.575 451.549 384.51 C 434.805 388.51 410.061 384.853 391.868 385.716 C 391.354 399.097 391.263 418.693 391.572 431.899 C 399.851 431.729 430.108 429.823 435.174 435.36 C 458.35 460.69 402.222 454.008 390.898 456.035 C 391.145 467.311 393.302 507.699 384.68 514.165 C 357.33 534.671 364.221 473.379 364.013 459.785 C 361.841 457.838 359.697 455.86 357.583 453.85 C 343.686 440.531 360.465 439.545 364.48 425.22 C 367.707 413.702 366.804 403.363 366.56 391.624 C 358.294 383.889 354.441 385.48 349.454 373.926 C 361.632 360.655 379.083 361.255 396.7 359.424 z"/>
<path transform="translate(0,0)" fill="rgb(0,0,0)" d="M 1576.86 350.245 C 1581 350.058 1586.38 349.364 1589.58 351.901 C 1597.85 368.369 1582.14 441.188 1590.9 451.078 C 1598.77 448.691 1619.94 418.264 1632.84 415.962 C 1647.61 413.329 1642.65 429.287 1637.92 435.185 C 1629.75 445.373 1619.53 452.289 1612.13 463.173 C 1619.62 476.065 1629.5 485.229 1639.89 495.706 C 1647.36 493.875 1652.55 491.34 1658.97 495.065 C 1659.4 501.319 1660.75 507.595 1654.85 511.658 C 1630.81 528.205 1611.71 503.952 1599.9 485.273 C 1597.81 481.971 1595.31 479.74 1591.44 479.203 C 1587.13 482.675 1589.43 505.668 1587.69 515.808 C 1582.48 516.29 1576.7 516.946 1571.51 516.165 C 1569.84 515.913 1567.63 515.243 1566.63 513.835 C 1558.65 502.558 1565.54 383.851 1569.07 365.536 C 1570.25 359.433 1571.41 353.939 1576.86 350.245 z"/>
<path transform="translate(0,0)" fill="rgb(0,0,0)" d="M 608.088 158.207 C 621.453 157.417 655.554 161.111 643.946 181.878 C 634.97 197.935 614.702 162.17 600.907 179.687 C 598.064 193.546 629.871 205.245 638.506 214.544 C 644.563 221.067 647.043 226.711 650.776 234.493 C 638.586 266.997 596.974 266.432 573.264 246.857 C 555.165 266.086 529.161 266.347 525.249 236.313 C 521.903 222.602 525.831 189.53 527.076 173.983 C 528.797 171.136 531.821 167.456 533.944 164.726 L 543.323 161.744 C 554.346 175.692 547.346 212.466 547.165 231.689 C 564.112 249.704 567.427 239.714 584.578 231.025 C 602.156 238.323 608.333 250.187 624.86 231.852 C 607.651 212.912 597.858 218.448 578.5 197.085 C 577.316 174.224 584.906 162.135 608.088 158.207 z"/>
<path transform="translate(0,0)" fill="rgb(0,0,0)" d="M 1057.2 415.209 C 1084.38 414.004 1104.71 427.418 1094.53 456.845 C 1085.25 483.653 1046.77 468.125 1041.73 480.152 C 1042.37 499.901 1065.26 495.43 1077.96 491.771 C 1088.87 488.63 1099.15 481.376 1105.36 494.459 C 1102 508.529 1093.15 511.438 1080.34 515.208 C 1030.39 529.916 999.625 482.574 1022.93 439.333 C 1030.89 424.566 1041.84 419.534 1057.2 415.209 z M 1060.76 457.333 C 1077.43 452.831 1081.31 433.467 1056.74 435.178 C 1051.09 439.694 1039.87 448.303 1044.7 456.2 C 1049.36 459.162 1055.27 457.898 1060.76 457.333 z"/>
<path transform="translate(0,0)" fill="rgb(0,0,0)" d="M 1617.34 158.258 C 1671.62 152.737 1649.22 223.435 1660.19 237.596 C 1663.4 239.307 1669.53 238.204 1674.56 238.827 C 1677.66 240.951 1676.77 239.819 1678.04 243.483 C 1677.47 251.529 1667.07 259.381 1659.48 260.137 C 1652.79 260.803 1641.92 252.889 1637.01 248.777 C 1624.64 254.148 1611.18 259.898 1597.69 257.934 C 1575.33 249.934 1577.49 239.638 1581.94 218.927 C 1587.64 212.623 1592.58 209.713 1600.78 207.28 C 1618.75 201.955 1648.89 199.73 1624.53 175.279 C 1613.65 177.234 1589.58 190.242 1583.15 180.574 C 1583.17 175.581 1590.51 169.372 1594.16 166.552 C 1601.46 160.916 1608.45 159.487 1617.34 158.258 z M 1610.01 240.38 C 1621.15 239.529 1636.67 227.232 1631.43 216.75 C 1629.11 215.121 1628.44 215.226 1625.54 215.318 C 1616.27 216.353 1609.77 217.728 1603.5 225.204 C 1597.82 231.96 1603.05 238.074 1610.01 240.38 z"/>
<path transform="translate(0,0)" fill="rgb(0,0,0)" d="M 1142.53 158.24 C 1168.42 157.47 1190.64 168.22 1183.7 197.746 C 1167.16 216.98 1149.85 218.29 1125.76 220.148 C 1147.26 254.481 1160.07 234.753 1188.36 234.658 C 1188.46 237.782 1188.59 240.887 1187.8 243.923 C 1186.43 249.143 1183.02 253.594 1178.34 256.278 C 1167.25 262.684 1148.92 260.627 1137.03 257.639 C 1123.12 254.142 1111.4 243.762 1104.31 231.424 C 1102.66 197.892 1103.63 167.916 1142.53 158.24 z M 1148.6 201.526 C 1172.66 193.222 1165.81 172.997 1143.4 176.149 C 1138.11 181.998 1130.72 188.219 1128.93 195.836 C 1130.73 204.591 1141.34 201.966 1148.6 201.526 z"/>
<path transform="translate(0,0)" fill="rgb(0,0,0)" d="M 1528.63 157.036 C 1548.93 155.27 1559.63 179.018 1561.34 197.785 C 1562.21 207.286 1571.31 281.021 1542.48 253.001 C 1538.24 248.884 1539 212.57 1538.54 205.45 C 1538.33 202.267 1536.99 193.103 1536.13 188.677 C 1525.49 173.802 1517.78 182.261 1509.34 192.958 C 1500.06 212.667 1504.55 234.798 1494.84 258.88 C 1484.29 259.063 1478.98 260.441 1477.51 247.08 C 1475.9 232.442 1471.89 161.25 1489.85 158.161 C 1497.06 159.234 1498.13 166.013 1504.9 172.824 C 1513.48 166.163 1518.93 161.877 1528.63 157.036 z"/>
<path transform="translate(0,0)" fill="rgb(0,0,0)" d="M 1147.4 374.291 C 1158.41 373.919 1158.79 374.467 1163.96 384.096 C 1163.81 394.122 1157.89 410.205 1158.66 413.236 C 1161.86 417.319 1176.6 417.939 1182.57 418.967 C 1205.32 442.925 1160.41 432.459 1156.73 441.315 C 1152.28 452.016 1151.78 477.787 1154.41 488.88 L 1161.42 495.907 C 1173.55 496.472 1203.23 483.003 1192.38 506.676 C 1189.36 510.025 1183.43 513.92 1179.6 516.645 C 1173.18 517.275 1166.24 517.767 1159.8 517.01 C 1112.61 511.459 1134.78 450.777 1128.52 443.229 C 1128.44 443.13 1128.35 443.034 1128.27 442.934 C 1124.25 438.126 1116.55 438.408 1112.03 434.46 C 1110.22 432.88 1110.38 431.709 1110.22 429.482 C 1111.42 425.471 1114.79 422.955 1117.9 420.117 C 1150.04 415.07 1128.54 395.533 1147.4 374.291 z"/>
<path transform="translate(0,0)" fill="rgb(0,0,0)" d="M 691.557 115.84 C 715.697 115.132 700.52 145.382 702.531 157.387 C 702.669 157.591 703.796 159.253 703.796 159.253 C 711.183 160.257 731.747 159.403 734.221 168.942 C 730.496 180.836 710.26 179.456 700.607 179.771 C 696.029 196.284 696.826 210.194 697.242 227.267 C 710.96 243.427 715.024 236.904 734.377 237.95 C 736.775 238.08 737.689 239.486 738.825 241.13 C 739.668 244.647 738.304 247.258 737.05 250.664 C 730.992 257.228 723.378 259.69 714.618 260.047 C 662.506 262.174 676.686 213.65 675.217 180.555 C 668.651 180.149 660.575 180.956 658.352 173.751 C 658.715 169.928 660.756 168.215 663.308 165.337 C 665.587 164.555 673.19 162.408 674.318 161.281 C 686.374 149.234 678.215 131.102 691.557 115.84 z"/>
<path transform="translate(0,0)" fill="rgb(0,0,0)" d="M 1707.49 89.4643 C 1710.83 90.8039 1713.43 93.5175 1716.12 95.9495 C 1717.13 124.663 1699.46 209.323 1709 229.261 C 1716.36 244.651 1733.22 232.109 1744.65 236.148 C 1751.87 243.459 1740.89 251.7 1735.68 256.44 C 1721.39 258.986 1716.87 259.628 1702.81 257.639 C 1700.63 255.843 1696.37 252.142 1694.59 250.105 C 1683.16 237.037 1683.23 201.793 1684.88 184.48 C 1687.27 159.434 1690.52 125.54 1697.08 100.983 C 1697.92 97.8261 1705.07 91.5735 1707.49 89.4643 z"/>
<path transform="translate(0,0)" fill="rgb(0,0,0)" d="M 881.832 89.5803 C 886.266 93.0712 888.66 94.6291 893.548 97.4709 C 892.991 134.704 872.742 210.639 896.053 242.251 C 897.817 241.5 899.593 240.776 901.38 240.079 C 908.007 237.507 919.06 233.985 921.635 243.287 C 920.501 249.629 916.811 252.843 912.301 257.283 C 847.233 275.741 862.715 186.331 865.266 150.115 C 866.671 130.171 867.154 104.793 881.832 89.5803 z"/>
<path transform="translate(0,0)" fill="rgb(0,0,0)" d="M 1483.91 414.858 C 1493.91 417.363 1494.32 422.611 1497.69 431.344 C 1510.04 416.597 1516.02 414.501 1534.67 416.234 C 1542.17 420.77 1543.64 422.915 1548.26 430.454 C 1546.75 435.68 1543.75 446.477 1537.55 448.202 C 1529.51 450.442 1522.56 437.501 1514.33 440.363 C 1508.88 442.262 1504.57 450.186 1502.14 455.042 C 1498.21 469.724 1500.42 485.318 1498.95 500.335 C 1498.39 504.337 1497.91 512.766 1493.77 514.917 C 1489.44 517.174 1479.84 515.757 1476.69 511.872 C 1472.51 501.296 1470.48 438.743 1474.25 424.984 C 1475.84 419.187 1479.16 417.786 1483.91 414.858 z"/>
<path transform="translate(0,0)" fill="rgb(0,0,0)" d="M 441.506 159.818 C 455.047 159.657 454.546 162.89 461.605 173.654 C 471.351 165.251 490.222 154.487 502.746 162.441 C 512.133 168.062 511.218 193.896 497.55 192.064 C 496.251 191.89 483.691 180.526 481.266 178.497 C 475.883 184.28 471.507 189.997 466.651 196.215 C 463.55 205.245 464.317 235.182 459.309 253.198 C 454.754 258.802 442.295 264.317 441.121 256.008 C 437.611 231.148 432.532 182.549 441.506 159.818 z"/>
<path transform="translate(0,0)" fill="rgb(0,0,0)" d="M 1328.83 161.026 C 1348.11 166.124 1329.11 216.802 1335.56 230.565 C 1339.42 238.8 1352.49 237.349 1356.21 241.934 C 1357.22 250.345 1350.67 256.106 1343.49 258.863 C 1335.8 259.211 1332.19 258.341 1324.8 256.241 C 1306.7 239.2 1309.97 213.811 1312.43 191.402 C 1313.84 178.523 1314.46 164.992 1328.83 161.026 z"/>
<path transform="translate(0,0)" fill="rgb(0,0,0)" d="M 1329.4 115.777 C 1339.71 117.057 1342.54 122.036 1345.74 130.958 C 1341.9 139.193 1341.54 141.118 1333.63 145.147 C 1312.46 143.688 1312.32 124.711 1329.4 115.777 z"/>
<path transform="translate(0,0)" fill="rgb(0,0,0)" d="M 537.014 119.631 C 541.712 118.046 546.899 119.11 550.593 122.417 C 554.288 125.723 555.919 130.76 554.864 135.605 C 553.809 140.449 550.231 144.352 545.496 145.822 C 538.297 148.058 530.639 144.088 528.316 136.916 C 525.994 129.745 529.871 122.039 537.014 119.631 z"/>
</g></svg></svg><svg x="371" y="244" width="285" height="357" xmlns="http://www.w3.org/2000/svg" preserveAspectRatio="none"><svg version="1.1" xmlns="http://www.w3.org/2000/svg" style="display: block;" width="285" height="357" viewBox="-0.48 0.00 1634.96 2048.00" preserveAspectRatio="none"><g id="svg-group-32d9a339-3fe8-49d8-8e74-30d17db8f15e">
<path transform="translate(0,0)" fill="rgba(0, 0, 0, 1)" d="M 1475.02 274.306 C 1490 273.69 1511.44 286.914 1511.38 303.944 C 1511.34 317.425 1500.18 341.449 1485.98 344.781 C 1449.1 353.438 1412.26 362.643 1375.34 371.15 C 1360.74 374.456 1343.88 378.048 1329.31 378.639 C 1306.47 376.841 1281.05 354.053 1292.88 329.222 C 1295.49 323.907 1304.33 315.422 1309.94 313.529 C 1349.42 300.217 1391.64 293.738 1432.11 283.498 C 1446.59 279.835 1460.55 278.334 1475.02 274.306 z"/>
<path transform="translate(0,0)" fill="rgba(0, 0, 0, 1)" d="M 1425.85 137.3 C 1429.54 136.238 1433.21 137.232 1437.01 138.09 C 1452.38 141.564 1459 150.617 1466.95 163.009 C 1466.73 180.288 1463.4 198.036 1445.97 206.375 C 1434.93 211.658 1422.22 214.128 1410.44 217.511 C 1385 224.819 1359.35 231.199 1333.46 236.728 C 1323.21 238.903 1313.74 242.312 1303.36 243.761 C 1298.73 243.963 1292.81 243.639 1288.06 243.501 C 1278.98 235.49 1272.28 228.724 1264.61 219.469 C 1263.94 213.025 1263.85 210.684 1261.52 204.704 C 1263.32 198.034 1264.62 192.466 1268.65 186.679 C 1272.13 181.769 1276.79 177.806 1282.2 175.152 C 1295.34 168.725 1336.05 158.678 1351.02 155.016 C 1373.81 149.439 1403.02 141.175 1425.85 137.3 z"/>
<path transform="translate(0,0)" fill="rgba(0, 0, 0, 1)" d="M 1012.43 318.516 C 1025.6 307.922 1022.16 310.579 1018.27 294.856 C 997.249 209.951 1019.16 107.089 1085.93 47.3647 C 1103 32.0947 1128.86 14.2726 1152.9 15.6608 C 1176.43 17.02 1196.47 36.3344 1205.64 56.9976 C 1242.84 135.065 1227.55 233.266 1172.28 298.912 C 1161.34 311.9 1147.42 322.643 1134.67 333.823 C 1160.14 355.929 1254.21 390.293 1260.78 421.94 C 1271.89 475.442 1171.6 519.489 1129.11 527.567 C 1109.83 531.231 1082.7 537.394 1062.19 536.816 C 987.184 534.704 917.164 518.164 852.43 480.17 C 840.031 488.089 808.554 516.886 800.241 528.043 L 805.128 531.287 C 816.829 532.166 828.344 531.622 840.239 532.559 C 892.515 536.673 969.318 545.348 1007.89 584.004 C 1015.25 591.374 1019.39 603.056 1018.53 613.31 C 1016.37 638.993 991.103 665.382 971.589 680.725 C 912.416 727.251 827.607 750.121 752.772 743.1 C 722.668 740.275 688.258 731.38 660.184 720.613 C 649.391 716.474 637.804 708.019 626.519 705.209 C 618.101 716.494 576.682 766.768 578.543 777.533 C 578.785 778.935 580.892 780.128 582.097 780.721 C 586.957 783.115 628.099 773.061 637.284 771.885 C 683.39 765.98 733.546 767.728 777.5 783.726 C 793.274 789.468 810.798 797.712 817.351 814.4 C 822.919 828.58 818.303 844.493 812.261 857.723 C 786.878 913.304 715.683 955.58 660.481 975.728 C 613.33 992.938 571.671 995.334 522.185 990.364 C 509.542 989.095 492.239 987.494 480.584 982.417 C 478.98 981.719 477.476 980.813 476.023 979.845 C 462.228 1006.26 455.885 1036.38 450.513 1065.62 C 430.515 1174 437.151 1285.61 469.849 1390.86 C 515.946 1533.05 615.9 1651.52 748.295 1720.9 C 899.751 1799.51 1089.12 1795.84 1242.55 1725.13 C 1408 1648.88 1517.08 1499.03 1553.04 1322.01 C 1555.48 1310.01 1555.54 1302.06 1541.71 1302.15 L 738.154 1303.46 L 605.41 1303.74 C 583.865 1303.79 559.664 1305.05 538.523 1302.25 C 520.651 1299.87 510.485 1283.78 505.528 1268.23 C 508.696 1254.47 510.706 1246.02 523.477 1237.7 C 526.655 1235.63 530.766 1233.35 534.575 1233.13 C 555.353 1231.9 577.666 1232.39 598.476 1232.4 L 725.343 1232.48 L 1063.53 1232.43 C 1122.79 1232.42 1183.93 1233.13 1243.04 1232.3 L 1505.17 1230.03 C 1536.01 1230.01 1573.72 1228.62 1604.44 1231.8 C 1614.84 1232.88 1626.64 1251.19 1634 1256.91 L 1634 1290.22 C 1624.3 1299.4 1623.75 1317.24 1621.94 1329.88 C 1618.31 1355.24 1611.75 1381.75 1604.53 1406.3 C 1567.97 1529.37 1492.27 1641.81 1390.35 1720.44 C 1283.23 1803.09 1146.6 1843.49 1012.76 1851.93 C 986.907 1853.56 945.863 1848.92 920.307 1845.4 C 754.608 1823.23 604.361 1736.54 502.238 1604.18 C 375.347 1436.73 344.329 1218.82 390.662 1016.68 C 396.073 993.07 403.768 972.238 407.14 947.776 C 378.822 921.003 349.961 886.122 332.692 851.007 C 283.663 751.307 290.92 607.843 369.204 524.47 C 373.536 519.855 384.926 512.828 390.525 509.103 C 394.357 508.79 405.853 508.306 409.337 509.217 C 457.003 521.682 495.247 616.864 506.95 660.283 C 513.248 683.65 511.173 708.129 522.388 724.528 C 532.377 712.853 566.258 668.805 572.399 657.116 C 545.235 626.514 525.907 589.775 516.073 550.056 C 497.993 477.987 510.793 382.135 550.032 318.914 C 573.197 281.591 592.96 256.182 636.688 245.332 C 696.914 262.522 714.79 344.483 725.341 398.242 C 728.427 413.967 722.612 478.971 729.768 486.236 C 739.304 486.507 780.546 447.105 789.796 438.821 C 785.142 432.955 781.346 425.032 777.49 419.056 C 757.817 388.56 747.758 348.195 749.69 312.006 C 750.255 301.429 749.382 290.637 750.632 278.914 C 757.95 215.508 791.119 152.696 840.175 111.821 C 873.122 84.3694 909.866 62.2683 940.433 107.016 C 980.933 166.302 981.281 243.292 968.802 311.495 C 967.846 316.72 967.153 324.076 970.526 328.435 C 977.185 328.053 1001.74 320.002 1012.43 318.516 z M 611.719 581.864 C 650.543 529.73 662.812 462.969 654.252 399.441 C 651.859 381.682 645.228 340.432 625.801 335.607 C 576.996 391.61 566.409 495.411 597.452 561.536 C 600.188 567.364 605.796 577.902 610.288 582.064 L 611.719 581.864 z M 842.177 383.554 L 844.054 385.134 C 848.871 384.385 860.031 370.957 863.16 366.393 C 884.329 335.514 900.605 295.226 903.862 257.743 C 904.565 247.316 902.945 236.879 902.973 226.461 C 903.004 214.869 904.258 203.587 902.407 192.049 C 901.18 184.407 897.021 170.783 890.496 166.002 C 865.165 179.997 836.855 223.62 829.216 251.065 C 822.592 274.862 821.979 323.049 827.077 347.157 C 829.227 357.503 832.951 367.458 838.122 376.673 C 839.415 379.001 840.767 381.296 842.177 383.554 z M 1095.23 269.873 C 1099.81 266.914 1105.44 260.615 1109.32 256.54 C 1126.47 238.494 1141.72 218.869 1149.24 194.65 C 1159.44 161.769 1159.12 125.282 1143.56 94.2225 C 1125.46 102.594 1120.66 114.6 1109.02 130.507 C 1084.77 163.631 1076.59 221.345 1085.12 261.922 C 1086.51 265.56 1087.73 270.083 1090.45 272.566 L 1092.65 272.628 L 1095.23 269.873 z M 680.331 837.351 C 623.634 844.146 569.351 848.18 523.981 888.334 C 517.855 893.756 504.956 903.361 503.346 911.259 L 504.035 913.483 C 512.561 917.806 549.377 921.312 558.888 920.259 C 620.02 919.413 698.575 895.861 734.564 843.154 C 717.623 841.335 696.718 835.389 680.331 837.351 z M 423.331 854.406 L 425.563 855.433 C 438.723 849.383 446.388 792.69 446.79 776.501 C 448.075 724.691 443.259 674.407 421.268 626.855 C 416.316 616.082 411.496 608.245 401.578 601.489 C 375.164 639.112 372.467 682.242 374.139 726.507 C 375.899 773.116 388.822 821.129 423.331 854.406 z M 818.502 603.614 C 764.14 605.754 724.875 618.415 680.773 649.492 C 707.221 671.71 753.962 669.989 787.658 670.772 C 803.691 670.525 826.155 669.339 841.863 666.334 C 857.447 663.353 923.366 638.458 925.251 623.004 C 924.234 620.097 922.396 618.201 919.466 617.137 C 887.13 605.387 851.979 600.84 818.502 603.614 z M 1171.63 430.487 C 1139.58 414.354 1112.88 401.32 1076.15 398.619 C 1070.17 398.18 1062.41 396.899 1056.6 397.466 C 1007.82 398.577 959.875 398.924 920.549 431.489 C 947.187 445.248 976.455 456.281 1006.28 460.656 C 1014.76 461.901 1031.17 460.398 1038.23 462.627 C 1048.47 464.738 1056.04 463.828 1066.07 463.499 C 1107.57 462.138 1137.6 457.268 1171.63 430.487 z"/>
<path transform="translate(0,0)" fill="rgba(150, 151, 129, 1)" d="M 782.532 538.158 C 788.003 534.312 793.117 530.53 799.07 527.433 L 800.241 528.043 L 805.128 531.287 C 799.259 532.027 788.336 536.125 782.532 538.158 z"/>
<path transform="translate(0,0)" fill="rgba(0, 0, 0, 1)" fill-opacity="0.027451" d="M 1085.12 261.922 L 1088.74 258.01 C 1094.28 258.311 1094.15 266.777 1095.23 269.873 L 1092.65 272.628 L 1090.45 272.566 C 1087.73 270.083 1086.51 265.56 1085.12 261.922 z"/>
<path transform="translate(0,0)" fill="rgba(0, 0, 0, 1)" d="M 0 1270.33 C 11.3931 1263.66 18.0592 1239.76 32.3234 1234.2 C 36.3405 1232.63 42.1798 1232.8 46.4954 1232.56 C 113.255 1232.14 180.035 1232.78 246.796 1232.51 C 258.56 1232.46 270.56 1231.96 282.215 1233.66 C 299.665 1235.72 317.898 1254.34 314.815 1272.44 C 313.408 1280.7 302.88 1294.31 295.953 1299.19 C 292.352 1301.71 285.16 1303.22 280.774 1303.46 C 264.565 1304.33 247.614 1303.94 231.359 1303.91 L 139.337 1303.52 C 122.13 1303.37 97.3993 1300.47 82.989 1309.44 C 83.2742 1330.33 89.5779 1355.54 93.9959 1376.18 C 106.27 1433.25 129.704 1486.11 152.168 1539.63 C 153.559 1542.94 156.87 1546.38 158.501 1549.47 C 251.619 1726.23 413.895 1873.02 604.462 1936.86 C 717.308 1974.66 849.778 1986.18 967.557 1968.81 C 1069.9 1953.71 1171.15 1923.56 1259.6 1869.04 C 1278.58 1857.39 1304.29 1838.65 1324.86 1830.54 C 1329.71 1828.63 1339.32 1830.53 1344.55 1832.82 C 1349.01 1834.79 1353.11 1837.5 1356.67 1840.83 C 1363.2 1846.95 1369.34 1860.28 1366.31 1868.52 C 1354.58 1900.4 1308.05 1922.65 1280.31 1938.2 C 1192.87 1987.23 1098.63 2018.95 999.863 2035.09 C 984.703 2037.56 956.148 2038.78 944.594 2048 L 766.432 2048 C 764.82 2046.19 761.768 2043.42 759.371 2042.98 C 720.69 2035.93 681.343 2030.8 643.214 2020.94 C 598.838 2009.17 555.33 1994.34 513.002 1976.55 C 428.312 1940.21 350.505 1889.58 282.984 1826.86 C 275.448 1819.94 264.578 1811.88 257.971 1804.39 C 229.131 1771.71 198.375 1740.3 172.835 1704.9 C 169.584 1700.39 166.8 1695.56 163.481 1691.14 C 83.9229 1585.34 31.8808 1456.33 14.3589 1325.17 C 11.8425 1306.35 15.1144 1284.42 0 1270.74 L 0 1270.33 z"/>
<path transform="translate(0,0)" fill="rgba(0, 0, 0, 1)" d="M 1391.3 0 L 1395.53 0 C 1407.45 14.1765 1432.94 17.5533 1428.24 45.5354 C 1426.58 55.858 1420.81 65.0709 1412.26 71.0814 C 1395.93 82.4608 1326.04 95.0301 1303.44 99.4372 C 1298.73 100.356 1283.72 100.892 1278.47 99.5905 C 1263.79 95.9492 1258.15 90.7486 1250.01 78.9507 C 1248.92 68.9975 1248.83 58.5956 1250.85 48.7695 C 1254.33 45.0915 1259.48 39.5601 1263.93 37.2203 C 1292.31 22.297 1333.54 20.1654 1365.16 11.208 C 1374.76 8.48931 1382.43 3.88397 1391.3 0 z"/>
</g></svg></svg></svg>